<svg width="1018" height="384" viewBox="0 0 1018 384" fill="none" xmlns="http://www.w3.org/2000/svg">
<g filter="url(#filter0_d_2_15)">
<path d="M224.202 303C205.602 303 189.302 299.8 175.302 293.4C161.302 287 149.602 278.4 140.202 267.6C131.002 256.6 124.102 244.4 119.502 231C114.902 217.4 112.602 203.5 112.602 189.3C112.602 175.1 114.902 161.2 119.502 147.6C124.302 134 131.302 121.8 140.502 111C149.902 99.9999 161.702 91.2999 175.902 84.8999C190.102 78.2999 206.702 74.9999 225.702 74.9999C240.502 74.9999 253.202 76.8999 263.802 80.7C274.602 84.2999 283.602 89.0999 290.802 95.0999C298.002 100.9 303.702 107.1 307.902 113.7C312.302 120.3 315.602 126.6 317.802 132.6C320.202 138.4 321.702 143.2 322.302 147V147C322.917 149.771 320.809 152.4 317.97 152.4H283.294C279.894 152.4 276.876 150.225 275.802 147V147C274.602 143.4 272.202 139.2 268.602 134.4C265.002 129.4 259.702 125.1 252.702 121.5C245.902 117.7 236.902 115.8 225.702 115.8C211.102 115.8 198.902 119.4 189.102 126.6C179.502 133.6 172.202 142.7 167.202 153.9C162.402 164.9 160.002 176.4 160.002 188.4C160.002 200.8 162.502 212.7 167.502 224.1C172.502 235.3 179.802 244.5 189.402 251.7C199.202 258.7 211.402 262.2 226.002 262.2C242.002 262.2 254.602 258.1 263.802 249.9C270.839 243.761 275.746 235.997 278.524 226.607C280.063 221.404 275.796 216.6 270.37 216.6H232.002C227.031 216.6 223.002 212.57 223.002 207.6V189.3C223.002 184.329 227.031 180.3 232.002 180.3H317.202C322.172 180.3 326.202 184.329 326.202 189.3V197.4C326.202 220.6 321.702 240.1 312.702 255.9C303.902 271.5 291.802 283.3 276.402 291.3C261.202 299.1 243.802 303 224.202 303Z" fill="#212529"/>
<path d="M367.013 300C362.043 300 358.013 295.971 358.013 291V86.9999C358.013 82.0294 362.043 78 367.013 78H395.213C400.184 78 404.213 82.0294 404.213 87V250.8C404.213 255.77 408.243 259.8 413.213 259.8H503.813C508.784 259.8 512.813 263.829 512.813 268.8V291C512.813 295.97 508.784 300 503.813 300H367.013Z" fill="#212529"/>
<path d="M551.959 300C545.792 300 541.451 293.937 543.44 288.099L612.91 84.0987C614.152 80.4519 617.577 78 621.429 78H670.044C673.896 78 677.322 80.4519 678.564 84.0987L748.034 288.099C750.022 293.937 745.682 300 739.514 300H710.03C706.129 300 702.672 297.486 701.469 293.775L691.404 262.725C690.201 259.014 686.744 256.5 682.843 256.5H608.888C605.007 256.5 601.563 258.987 600.344 262.672L590.03 293.828C588.81 297.512 585.366 300 581.486 300H551.959ZM619.189 204.479C617.267 210.302 621.603 216.3 627.735 216.3H664.038C670.17 216.3 674.507 210.302 672.585 204.479L654.433 149.491C651.714 141.252 640.06 141.252 637.34 149.491L619.189 204.479Z" fill="#E91D63"/>
<path d="M783.153 300C778.183 300 774.153 295.971 774.153 291V272.157C774.153 269.992 774.933 267.899 776.351 266.263L841.049 191.593C846.099 185.765 841.958 176.7 834.247 176.7H786.153C781.183 176.7 777.153 172.671 777.153 167.7V150C777.153 145.029 781.183 141 786.153 141H899.553C904.524 141 908.553 145.029 908.553 150V168.843C908.553 171.008 907.773 173.101 906.355 174.737L841.658 249.406C836.608 255.235 840.748 264.3 848.46 264.3H899.553C904.524 264.3 908.553 268.329 908.553 273.3V291C908.553 295.97 904.524 300 899.553 300H783.153Z" fill="#E91D63"/>
</g>
<g filter="url(#filter1_d_2_15)">
<path d="M312 57.5H307.799C293.451 57.5 279.617 62.8481 269 72.5L276.082 75.2415C281.68 77.4082 287.041 80.1396 292.085 83.3935C297.347 86.7882 302.233 90.7327 306.661 95.1605L312 100.5L312.335 99.6326C317.581 86.0559 317.461 70.9915 312 57.5Z" fill="#212529"/>
</g>
<g filter="url(#filter2_d_2_15)">
<path d="M133.5 58H137.701C152.049 58 165.883 63.3481 176.5 73L169.418 75.7415C163.82 77.9082 158.459 80.6396 153.415 83.8935C148.153 87.2882 143.267 91.2327 138.839 95.6605L133.5 101L133.165 100.133C127.919 86.5559 128.039 71.4915 133.5 58Z" fill="#212529"/>
</g>
<defs>
<filter id="filter0_d_2_15" x="108.602" y="74.9999" width="803.952" height="236" filterUnits="userSpaceOnUse" color-interpolation-filters="sRGB">
<feFlood flood-opacity="0" result="BackgroundImageFix"/>
<feColorMatrix in="SourceAlpha" type="matrix" values="0 0 0 0 0 0 0 0 0 0 0 0 0 0 0 0 0 0 127 0" result="hardAlpha"/>
<feOffset dy="4"/>
<feGaussianBlur stdDeviation="2"/>
<feComposite in2="hardAlpha" operator="out"/>
<feColorMatrix type="matrix" values="0 0 0 0 0 0 0 0 0 0 0 0 0 0 0 0 0 0 0.25 0"/>
<feBlend mode="normal" in2="BackgroundImageFix" result="effect1_dropShadow_2_15"/>
<feBlend mode="normal" in="SourceGraphic" in2="effect1_dropShadow_2_15" result="shape"/>
</filter>
<filter id="filter1_d_2_15" x="265" y="57.5" width="55.1843" height="51" filterUnits="userSpaceOnUse" color-interpolation-filters="sRGB">
<feFlood flood-opacity="0" result="BackgroundImageFix"/>
<feColorMatrix in="SourceAlpha" type="matrix" values="0 0 0 0 0 0 0 0 0 0 0 0 0 0 0 0 0 0 127 0" result="hardAlpha"/>
<feOffset dy="4"/>
<feGaussianBlur stdDeviation="2"/>
<feComposite in2="hardAlpha" operator="out"/>
<feColorMatrix type="matrix" values="0 0 0 0 0 0 0 0 0 0 0 0 0 0 0 0 0 0 0.25 0"/>
<feBlend mode="normal" in2="BackgroundImageFix" result="effect1_dropShadow_2_15"/>
<feBlend mode="normal" in="SourceGraphic" in2="effect1_dropShadow_2_15" result="shape"/>
</filter>
<filter id="filter2_d_2_15" x="125.316" y="58" width="55.1843" height="51" filterUnits="userSpaceOnUse" color-interpolation-filters="sRGB">
<feFlood flood-opacity="0" result="BackgroundImageFix"/>
<feColorMatrix in="SourceAlpha" type="matrix" values="0 0 0 0 0 0 0 0 0 0 0 0 0 0 0 0 0 0 127 0" result="hardAlpha"/>
<feOffset dy="4"/>
<feGaussianBlur stdDeviation="2"/>
<feComposite in2="hardAlpha" operator="out"/>
<feColorMatrix type="matrix" values="0 0 0 0 0 0 0 0 0 0 0 0 0 0 0 0 0 0 0.25 0"/>
<feBlend mode="normal" in2="BackgroundImageFix" result="effect1_dropShadow_2_15"/>
<feBlend mode="normal" in="SourceGraphic" in2="effect1_dropShadow_2_15" result="shape"/>
</filter>
</defs>
</svg>
