<svg width="400" height="300" viewBox="0 0 400 300" fill="none" xmlns="http://www.w3.org/2000/svg">
<rect width="400" height="300" fill="#E5E5E5"/>
<line x1="232.061" y1="25.5" x2="372.5" y2="25.5" stroke="#C4C4C4" stroke-width="5" stroke-linecap="round"/>
<line x1="232.061" y1="48.9454" x2="372.5" y2="48.9454" stroke="#C4C4C4" stroke-width="5" stroke-linecap="round"/>
<line x1="232.061" y1="70.9256" x2="372.5" y2="70.9256" stroke="#C4C4C4" stroke-width="5" stroke-linecap="round"/>
<path d="M231.926 91.0096H373.818" stroke="#C4C4C4" stroke-width="5" stroke-linecap="round"/>
<path d="M231.926 112.99H373.818" stroke="#C4C4C4" stroke-width="5" stroke-linecap="round"/>
<path d="M231.926 134.97H373.818" stroke="#C4C4C4" stroke-width="5" stroke-linecap="round"/>
<path fill-rule="evenodd" clip-rule="evenodd" d="M28.9333 124.235L92.7389 75.54C130.055 47.0615 182.156 48.3714 217.993 78.689L272.944 125.175C277.666 129.17 277.665 136.451 272.943 140.445L223.62 182.158C189.841 210.727 141.304 213.704 104.286 189.478L29.5242 140.552C23.7505 136.773 23.448 128.421 28.9333 124.235ZM150.128 186.437C182.127 186.437 208.067 160.791 208.067 129.155C208.067 97.5188 182.127 71.8728 150.128 71.8728C118.129 71.8728 92.1891 97.5188 92.1891 129.155C92.1891 160.791 118.129 186.437 150.128 186.437Z" fill="#ECACC2"/>
<path d="M307.277 163.114L230.894 191.252L260.586 215.831L223.213 254.276L249.633 273.853L278.043 228.644L297.709 242.521L307.277 163.114Z" fill="#A3A3A3"/>
<line x1="6.5" y1="-6.5" x2="42.0214" y2="-6.5" transform="matrix(0.00985564 0.999951 -0.999945 0.0104706 281.458 102.063)" stroke="#E91D63" stroke-width="13" stroke-linecap="round"/>
<line x1="6.5" y1="-6.5" x2="41.7713" y2="-6.5" transform="matrix(-0.408186 0.912899 -0.903266 -0.429081 329.539 105.497)" stroke="#E91D63" stroke-width="13" stroke-linecap="round"/>
<line x1="6.5" y1="-6.5" x2="40.8381" y2="-6.5" transform="matrix(-0.900735 0.434369 -0.413327 -0.910583 367.225 146.579)" stroke="#E91D63" stroke-width="13" stroke-linecap="round"/>
<path d="M149.044 90.1962C149.493 88.0844 152.507 88.0844 152.956 90.1962L156.872 108.606C157.179 110.049 158.89 110.675 160.055 109.77L175.007 98.162C176.715 96.8356 179.02 98.7882 177.993 100.692L169.084 117.199C168.379 118.506 169.294 120.099 170.779 120.148L189.67 120.765C191.837 120.836 192.358 123.821 190.344 124.622L172.835 131.585C171.452 132.135 171.133 133.951 172.247 134.939L186.295 147.411C187.915 148.849 186.412 151.477 184.351 150.809L166.336 144.978C164.928 144.522 163.53 145.701 163.741 147.166L166.416 165.747C166.724 167.885 163.893 168.925 162.743 167.096L152.693 151.109C151.909 149.861 150.091 149.861 149.307 151.109L139.257 167.096C138.107 168.925 135.276 167.885 135.584 165.747L138.259 147.166C138.47 145.701 137.072 144.522 135.664 144.978L117.649 150.809C115.588 151.477 114.085 148.849 115.705 147.411L129.753 134.939C130.867 133.951 130.548 132.135 129.165 131.585L111.656 124.622C109.642 123.821 110.163 120.836 112.33 120.765L131.221 120.148C132.706 120.099 133.621 118.506 132.916 117.199L124.007 100.692C122.98 98.7882 125.285 96.8356 126.993 98.162L141.945 109.77C143.11 110.675 144.821 110.049 145.128 108.606L149.044 90.1962Z" fill="#C4C4C4"/>
</svg>
