<svg width="400" height="300" viewBox="0 0 400 300" fill="none" xmlns="http://www.w3.org/2000/svg">
<rect width="400" height="300" fill="#E5E5E5"/>
<rect x="35" y="71" width="50" height="203" fill="#A3A3A3"/>
<rect x="99" y="40" width="50" height="234" fill="#A3A3A3"/>
<rect x="163" y="154" width="50" height="120" fill="#A3A3A3"/>
<path fill-rule="evenodd" clip-rule="evenodd" d="M307 166C341.794 166 370 137.794 370 103C370 68.2061 341.794 40 307 40C272.206 40 244 68.2061 244 103C244 137.794 272.206 166 307 166ZM306.656 147.303C331.832 147.303 352.241 127.65 352.241 103.406C352.241 79.1629 331.832 59.5097 306.656 59.5097C281.48 59.5097 261.071 79.1629 261.071 103.406C261.071 127.65 281.48 147.303 306.656 147.303Z" fill="#C4C4C4"/>
<path fill-rule="evenodd" clip-rule="evenodd" d="M348.29 121.31C341.175 136.629 325.21 147.303 306.656 147.303C281.48 147.303 261.071 127.65 261.071 103.406C261.071 79.1629 281.48 59.5097 306.656 59.5097C311.897 59.5097 316.931 60.3612 321.617 61.9285L326.898 43.2067C320.643 41.1264 313.953 40 307 40C272.206 40 244 68.2061 244 103C244 137.794 272.206 166 307 166C330.416 166 350.848 153.225 361.707 134.265L348.29 121.31Z" fill="#E91D63"/>
<path d="M198.758 227.645C195.244 225.999 193 222.469 193 218.59V211.965C193 208.085 195.244 204.555 198.758 202.91L239.887 183.642C246.15 180.707 253.34 185.279 253.34 192.196V192.196C253.34 196.009 251.047 199.449 247.527 200.915L214.016 214.877C213.855 214.945 213.701 214.766 213.793 214.616V214.616C213.888 214.461 214.127 214.528 214.127 214.711V215.848C214.127 216.037 213.877 216.105 213.782 215.942V215.942C213.692 215.788 213.849 215.608 214.013 215.677L247.546 229.687C251.055 231.153 253.34 234.584 253.34 238.387V238.387C253.34 245.291 246.164 249.854 239.912 246.925L198.758 227.645Z" fill="#ECACC2"/>
<path d="M298.714 154C304.18 154 308.206 159.113 306.924 164.427L283.497 261.535C282.582 265.328 279.188 268 275.286 268V268C269.82 268 265.794 262.887 267.076 257.573L290.503 160.465C291.418 156.672 294.812 154 298.714 154V154Z" fill="#ECACC2"/>
<path d="M381 218.59C381 222.469 378.756 225.999 375.242 227.645L334.088 246.925C327.836 249.854 320.66 245.291 320.66 238.387V238.387C320.66 234.584 322.945 231.153 326.454 229.687L360.025 215.661C360.182 215.595 360.334 215.764 360.252 215.913V215.913C360.163 216.077 359.914 216.013 359.914 215.827V214.731C359.914 214.551 360.153 214.488 360.243 214.644V214.644C360.326 214.79 360.177 214.958 360.022 214.893L326.473 200.915C322.953 199.449 320.66 196.009 320.66 192.196V192.196C320.66 185.279 327.85 180.707 334.113 183.642L375.242 202.91C378.756 204.555 381 208.085 381 211.965V218.59Z" fill="#ECACC2"/>
<path d="M17 46L26.183 51.2474C31.6831 54.3903 37.7022 56.5213 43.9546 57.5391V57.5391C51.8811 58.8295 59.9971 58.3009 67.6892 55.9932L74.3975 53.9808C82.0921 51.6724 89.4127 48.2641 96.1324 43.8615L109.74 34.9462C113.233 32.6578 116.999 30.8162 120.95 29.4645L126.941 27.4149C131.561 25.8345 136.522 25.535 141.298 26.5481V26.5481C147.257 27.8122 152.615 31.0524 156.502 35.7433L159.587 39.4673C163.158 43.7766 165.807 48.7725 167.37 54.1461L173 73.5L182.831 98.0763C185.589 104.974 189.518 111.343 194.444 116.904L196.135 118.814C200.341 123.563 205.397 127.486 211.042 130.38L213.547 131.665C219.102 134.514 225.256 136 231.5 136V136" stroke="#ECACC2" stroke-width="5" stroke-linecap="round"/>
<path d="M285.207 88C286.412 88 287.525 88.6422 288.127 89.6849L292.409 97.0917C292.444 97.1527 292.509 97.1903 292.58 97.1903V97.1903C292.65 97.1903 292.715 97.1531 292.75 97.0925L297.091 89.6626C297.693 88.633 298.796 88 299.988 88V88C302.6 88 304.21 90.8527 302.861 93.0888L299.402 98.8189C298.022 101.105 298.043 103.973 299.455 106.24L302.978 111.895C304.389 114.159 302.761 117.091 300.094 117.091V117.091C298.888 117.091 297.773 116.452 297.163 115.413L292.751 107.899C292.715 107.838 292.65 107.801 292.58 107.801V107.801C292.509 107.801 292.444 107.838 292.408 107.899L287.991 115.422C287.384 116.456 286.275 117.091 285.076 117.091V117.091C282.425 117.091 280.805 114.18 282.202 111.928L285.727 106.242C287.134 103.973 287.151 101.107 285.77 98.8228L282.321 93.1176C280.962 90.8698 282.581 88 285.207 88V88Z" fill="#A3A3A3"/>
<path d="M314.739 88C315.943 88 317.056 88.6422 317.659 89.6849L321.94 97.0917C321.975 97.1527 322.041 97.1903 322.111 97.1903V97.1903C322.181 97.1903 322.246 97.1531 322.282 97.0925L326.622 89.6626C327.224 88.633 328.327 88 329.519 88V88C332.131 88 333.741 90.8527 332.392 93.0888L328.934 98.8189C327.554 101.105 327.574 103.973 328.986 106.24L332.51 111.895C333.92 114.159 332.292 117.091 329.625 117.091V117.091C328.419 117.091 327.304 116.452 326.694 115.413L322.282 107.899C322.246 107.838 322.181 107.801 322.111 107.801V107.801C322.04 107.801 321.975 107.838 321.94 107.899L317.523 115.422C316.916 116.456 315.806 117.091 314.607 117.091V117.091C311.956 117.091 310.336 114.18 311.733 111.928L315.259 106.242C316.666 103.973 316.682 101.107 315.301 98.8228L311.852 93.1176C310.493 90.8698 312.112 88 314.739 88V88Z" fill="#A3A3A3"/>
</svg>
